<svg xmlns="http://www.w3.org/2000/svg" xmlns:xlink="http://www.w3.org/1999/xlink" width="392.261" height="628.974" viewBox="0 0 392.261 628.974">
  <defs>
    <clipPath id="clip-path">
      <rect id="Rectangle_18038" data-name="Rectangle 18038" width="392.261" height="628.974" fill="#1d1d1d"/>
    </clipPath>
  </defs>
  <g id="Group_65796" data-name="Group 65796" clip-path="url(#clip-path)">
    <path id="Path_21" data-name="Path 21" d="M31.686,257.593c-3.618-3.154-10.026-14.122-15.678-26.288C1.43,199.932-7.713,162.914,8.885,130.587,22.919,103.256,53.732,85.4,85.062,73.128,182.752,34.865,293.814,36.531,392.26,0c-1.248,4.117-3.182,9.962-6.03,16.822C357.5,86.062,285.7,118.171,207.158,134.559c-33.8,7.052-68.6,11.683-100.4,23.889C82.424,167.785,59.324,182.4,45.5,202.554a76.037,76.037,0,0,0-12.4,31.052c-.51,3.176-3.283,22.355-1.411,23.987" transform="translate(0)" fill="#1d1d1d"/>
    <path id="Path_22" data-name="Path 22" d="M68.613,323.663c-3.618-2.1-13.687-21.889-15.677-26.285C44.8,279.4,40.244,269.12,38.465,254.271c-1.2-10-2.167-18.086,1.206-28.388,4.868-14.872,15.419-24.066,20.5-28.388,9.475-8.059,18.376-11.589,31.354-16.822,15.4-6.211,27.61-8.983,48.237-13.668,16.513-3.75,29.591-6.019,37.384-7.36,18.264-3.143,20.245-2.844,41-6.308,20.068-3.35,32.523-6.016,38.59-7.36,21.625-4.789,30.613-7.942,38.59-11.565A133.616,133.616,0,0,0,311.006,126a103.839,103.839,0,0,1-1.206,12.617c-7.865,49.955-51.619,85.682-105.634,100.3-27.9,7.549-57.837,8.947-84.951,18.433-15.824,5.537-30.906,14.8-40.574,27.205-3.9,5-11.235,13.879-10.029,39.112" transform="translate(7.692 6.476)" fill="#1d1d1d"/>
    <path id="Path_23" data-name="Path 23" d="M119.8,615.089c-2.412-7.36-1.675-14.564-4.824-51.519C108.8,491.1,88.748,419.678,72.354,348.577,64.59,314.9,73.879,279.6,115.907,267.631c16.1-4.586,35.647-1.766,46.676,9.44,8.731,8.872,10.933,21.163,12.395,32.783A523.351,523.351,0,0,1,167.341,484.6c-6.1,28.523-15.033,56.281-25.14,83.893-4.28,11.692-8.543,23.466-14.044,34.785-.481.989-7.655,13.944-8.354,11.812" transform="translate(14.387 13.648)" fill="#1d1d1d"/>
    <path id="Path_24" data-name="Path 24" d="M259.219,270.491c0,16.839-15.658,30.491-34.972,30.491s-34.972-13.651-34.972-30.491S204.933,240,224.247,240s34.972,13.651,34.972,30.491" transform="translate(38.978 12.336)" fill="#1d1d1d"/>
  </g>
</svg>
